<svg xmlns="http://www.w3.org/2000/svg" viewBox="0 0 128 128">
  <defs>
    <linearGradient id="bg" x1="0" y1="0" x2="1" y2="1">
      <stop offset="0%" stop-color="#0b57d0"/>
      <stop offset="100%" stop-color="#2aa198"/>
    </linearGradient>
  </defs>
  <rect x="8" y="8" width="112" height="112" rx="24" fill="url(#bg)"/>
  <path d="M64 28 34 44v22c0 22 13 39 30 46 17-7 30-24 30-46V44L64 28Z" fill="#ffffff" opacity="0.92"/>
  <path d="M64 48a16 16 0 1 0 0 32 16 16 0 0 0 0-32Zm0 8a8 8 0 1 1 0 16 8 8 0 0 1 0-16Z" fill="#0b57d0"/>
  <path d="m82 82 10 10" stroke="#ffffff" stroke-width="8" stroke-linecap="round"/>
</svg>
