<?xml version="1.0" encoding="UTF-8"?>
<svg version="1.1" xmlns="http://www.w3.org/2000/svg" width="512" height="512">
<path d="M0 0 C1.93783523 -0.00679667 1.93783523 -0.00679667 3.91481864 -0.01373065 C7.47147044 -0.02587442 11.02802758 -0.02571046 14.58469534 -0.02334189 C18.43218503 -0.02293152 22.27964524 -0.03399382 26.12712097 -0.04345703 C33.65449867 -0.06002094 41.18184503 -0.0655645 48.70923944 -0.06668179 C54.83297764 -0.06763452 60.95670557 -0.07175604 67.08044052 -0.07808304 C84.47133634 -0.09568343 101.86220754 -0.10492388 119.25311233 -0.10342209 C120.18930419 -0.10334218 121.12549606 -0.10326227 122.09005737 -0.10317993 C123.02740246 -0.10309817 123.96474755 -0.10301641 124.93049704 -0.10293217 C140.11145969 -0.10211977 155.29232302 -0.12124894 170.47325696 -0.14945666 C186.08933571 -0.17824219 201.70536611 -0.19199382 217.32147205 -0.19026911 C226.07727372 -0.18960713 234.83297127 -0.19501481 243.58874893 -0.21662521 C251.0452105 -0.23491187 258.50152075 -0.23912338 265.95799513 -0.22560637 C269.75563328 -0.21911401 273.55298177 -0.21882258 277.35059166 -0.23631287 C309.65396561 -0.37589389 334.702418 6.07076379 359.75704956 27.26742554 C360.39255737 27.78047241 361.02806519 28.29351929 361.68283081 28.82211304 C366.23396832 32.55586221 370.02931693 36.7204936 373.75704956 41.26742554 C374.52017456 42.18137085 375.28329956 43.09531616 376.06954956 44.03695679 C387.26915193 57.94896285 395.0451243 73.03891608 399.75704956 90.26742554 C399.93558397 90.90168382 400.11411838 91.53594211 400.29806292 92.18942034 C401.99177404 98.87172961 402.0423375 105.35329739 402.0244751 112.21844482 C402.02900621 113.50313144 402.03353732 114.78781806 402.03820574 116.11143458 C402.0503797 119.65734226 402.05018191 123.2031552 402.04781699 126.74907899 C402.04740738 130.58164547 402.05846204 134.41418217 402.06793213 138.24673462 C402.08451449 145.74965728 402.09004051 153.25254851 402.09115689 160.75548796 C402.09210908 166.86066416 402.09622795 172.96583003 402.10255814 179.07100296 C402.12016636 196.40824624 402.12939817 213.74546482 402.12789719 231.08271711 C402.12777732 232.48343245 402.12777732 232.48343245 402.12765503 233.91244507 C402.12757327 234.84740592 402.12749151 235.78236678 402.12740727 236.74565978 C402.12659545 251.87689971 402.14570791 267.00803983 402.17393176 282.13925092 C402.20273195 297.70329547 402.21646801 313.26729148 402.21474421 328.83136332 C402.21408256 337.55819515 402.21947514 346.28492249 402.24110031 355.01173019 C402.25940671 362.44659049 402.26358283 369.88129897 402.25008146 377.31617217 C402.24359788 381.10189295 402.24326481 384.88732332 402.26078796 388.67301559 C402.34361341 407.75394181 402.08670146 426.37254866 394.06954956 444.07992554 C393.72706177 444.85996948 393.38457397 445.64001343 393.03170776 446.44369507 C380.73625484 473.58213199 358.41650836 494.81663697 330.65304565 505.56088257 C317.64844099 510.40704866 305.36811898 512.57091509 291.51409912 512.53485107 C290.22220897 512.53938219 288.93031882 512.5439133 287.59928048 512.54858172 C284.04262868 512.56072549 280.48607154 512.56056153 276.92940378 512.55819297 C273.08191409 512.5577826 269.23445388 512.56884489 265.38697815 512.57830811 C257.85960045 512.59487201 250.33225409 512.60041557 242.80485968 512.60153286 C236.68112148 512.6024856 230.55739355 512.60660712 224.4336586 512.61293411 C207.04276278 512.6305345 189.65189158 512.63977495 172.26098679 512.63827316 C170.85669899 512.6381533 170.85669899 512.6381533 169.42404175 512.63803101 C168.48669666 512.63794924 167.54935157 512.63786748 166.58360209 512.63778324 C151.40263943 512.63697085 136.2217761 512.65610001 121.04084216 512.68430774 C105.42476341 512.71309326 89.80873301 512.7268449 74.19262707 512.72512019 C65.4368254 512.72445821 56.68112785 512.72986588 47.92535019 512.75147629 C40.46888862 512.76976294 33.01257837 512.77397445 25.55610399 512.76045744 C21.75846584 512.75396509 17.96111735 512.75367366 14.16350746 512.77116394 C-18.13986649 512.91074496 -43.18831888 506.46408728 -68.24295044 485.26742554 C-68.87845825 484.75437866 -69.51396606 484.24133179 -70.16873169 483.71273804 C-74.71923734 479.97950724 -78.51843548 475.81627982 -82.24295044 471.26742554 C-83.40504028 469.86170288 -83.40504028 469.86170288 -84.59060669 468.42758179 C-100.53321831 448.70720343 -110.76127515 425.4579037 -110.63063049 399.83538818 C-110.63601603 398.54728387 -110.64140157 397.25917955 -110.6469503 395.93204176 C-110.66127682 392.39512326 -110.65720077 388.8584403 -110.64978349 385.3215096 C-110.64502187 381.49173308 -110.65758816 377.66200536 -110.6678009 373.83224487 C-110.68493791 366.34322077 -110.68583928 358.85428077 -110.680588 351.36524217 C-110.67653434 345.2715992 -110.67800402 339.17798094 -110.68333626 333.08433914 C-110.68408468 332.21457209 -110.6848331 331.34480505 -110.6856042 330.44868142 C-110.68713581 328.68127825 -110.68867416 326.91387509 -110.69021917 325.14647193 C-110.70392661 308.59572782 -110.69851964 292.04503106 -110.68703396 275.49428804 C-110.67711078 260.38916421 -110.69002955 245.28416304 -110.71396815 230.17905812 C-110.73841805 214.6329615 -110.74795214 199.08692186 -110.74131542 183.54080641 C-110.73783531 174.82745461 -110.73997456 166.11419699 -110.75756645 157.40085983 C-110.77236265 149.98072748 -110.77282821 142.56075557 -110.75549554 135.14062612 C-110.74704231 131.36298445 -110.74469452 127.58562847 -110.76014709 123.80800247 C-110.83256511 104.74878806 -110.56315205 86.14142968 -102.55545044 68.45492554 C-102.04171875 67.28485962 -102.04171875 67.28485962 -101.51760864 66.09115601 C-89.22215572 38.95271908 -66.90240923 17.7182141 -39.13894653 6.97396851 C-26.13434187 2.12780241 -13.85401986 -0.03606402 0 0 Z " fill="#141A11" transform="translate(110.24295043945313,-0.267425537109375)"/>
<path d="M0 0 C1.16144531 0.38542969 2.32289063 0.77085937 3.51953125 1.16796875 C25.94405124 9.23453066 42.78622026 25.79357123 53.46484375 46.89453125 C63.45542106 69.0924401 63.72289534 92.96505667 55.6796875 115.73828125 C46.36087364 139.03531589 28.77993952 156.08197806 6.01367188 166.17480469 C-15.69931278 175.07270577 -39.51144627 174.03740576 -61.1875 165.8125 C-83.66231785 155.6972947 -100.82722371 137.91023002 -110 115 C-118.24123848 91.04644124 -116.76630837 66.42803579 -105.9140625 43.65625 C-103.20705921 38.30332453 -99.82806744 33.60653637 -96 29 C-95.2884375 28.13761719 -94.576875 27.27523437 -93.84375 26.38671875 C-82.76605421 13.53425127 -68.37419478 3.72727799 -52 -1 C-51.00355469 -1.29777344 -50.00710937 -1.59554687 -48.98046875 -1.90234375 C-32.77725734 -6.07327717 -15.80895049 -5.24686249 0 0 Z " fill="#2A400C" transform="translate(283,172)"/>
<path d="M0 0 C24.83884608 21.86894506 39.57186245 51.2652017 42.609375 84.125 C44.7800742 118.70741661 34.17928862 151.15839574 11.24584961 177.20629883 C-10.31009017 201.00452987 -40.22230454 216.18302043 -72.390625 218.125 C-107.64922078 219.81709779 -139.88252886 209.03403412 -166.140625 185.25 C-188.15339846 164.62396193 -204.18071262 134.35824667 -205.49121094 103.77783203 C-206.60512353 67.35564075 -196.09905198 34.54399434 -170.99047852 7.74731445 C-125.54831067 -39.28652302 -49.51637103 -42.42639808 0 0 Z M-136.390625 25.125 C-137.25300781 25.8365625 -138.11539063 26.548125 -139.00390625 27.28125 C-151.85287515 38.35593033 -161.67021296 52.75178334 -166.390625 69.125 C-166.68839844 70.13304687 -166.98617187 71.14109375 -167.29296875 72.1796875 C-173.0878082 94.87836739 -169.16701788 119.0216841 -157.61328125 139.234375 C-144.46788963 159.98742679 -125.2109261 174.14765185 -101.4765625 180.43359375 C-85.76034148 183.95482302 -69.64020963 183.15852196 -54.390625 178.125 C-53.27558594 177.774375 -52.16054688 177.42375 -51.01171875 177.0625 C-28.62478132 169.30385021 -11.42911248 152.22226097 -1.07299805 131.21069336 C9.19007499 109.31875901 9.00923368 85.53633606 1.546875 62.90234375 C-7.05090743 40.24360464 -24.62840448 23.03184962 -46.34375 12.8515625 C-75.79267437 -0.20384441 -111.63988874 4.5569463 -136.390625 25.125 Z " fill="#1C2810" transform="translate(337.390625,161.875)"/>
<path d="M0 0 C0.81726563 0.639375 1.63453125 1.27875 2.4765625 1.9375 C7.15406582 5.22376094 12.84710897 5.03703814 18.375 5.5 C28.58706176 6.5289586 38.18369193 7.90073918 48 11 C48.75909668 11.23702637 49.51819336 11.47405273 50.30029297 11.71826172 C76.8828888 20.17225955 100.25565638 33.01778317 120.82421875 52.01171875 C122.57001374 53.60706821 124.33288102 55.09935732 126.1875 56.5625 C129.85867955 59.74418895 132.87436859 63.29141353 136 67 C136.7528125 67.85335937 137.505625 68.70671875 138.28125 69.5859375 C171.37693401 107.81354719 184.49473132 156.19027291 182 206 C178.76187227 246.1284108 161.3022561 286.39348322 133.375 315.484375 C130.97469422 317.9562582 130.97469422 317.9562582 128.90625 320.62890625 C126.00349102 324.23951015 122.530543 327.02019852 119 330 C118.12214844 330.76570313 117.24429688 331.53140625 116.33984375 332.3203125 C97.74924489 348.28370695 77.0350561 358.89867883 54 367 C53.07791748 367.33725098 52.15583496 367.67450195 51.20581055 368.02197266 C43.39808854 370.78207487 35.60258392 372.42156837 27.4375 373.75 C26.78613068 373.85673035 26.13476135 373.96346069 25.46365356 374.07342529 C17.31628707 375.39099485 9.20065662 376.49538186 0.9375 376.625 C0.18976318 376.64788086 -0.55797363 376.67076172 -1.32836914 376.69433594 C-5.24401571 376.63739444 -6.87405176 376.10364316 -9.93359375 373.5859375 C-13.15344355 369.55656024 -13.52749081 367.186993 -13 362 C-10.5625 359.125 -10.5625 359.125 -8 357 C-7.67 356.67 -7.34 356.34 -7 356 C-5.24548855 355.90336228 -3.49025453 355.8145914 -1.73388672 355.76147461 C41.48001752 354.36940434 80.6914345 337.57503754 112 308 C112.74765625 307.30519531 113.4953125 306.61039062 114.265625 305.89453125 C143.92438442 277.42834432 160.03364221 235.29348429 161.203125 194.66796875 C161.7540439 156.19430334 150.90757951 119.49957231 127 89 C126.32582031 88.12214844 125.65164063 87.24429688 124.95703125 86.33984375 C99.80421466 54.49793568 61.48930142 31.66994584 21.01171875 26.39453125 C10.18003814 25.07073448 10.18003814 25.07073448 0 28 C-4.71250609 28.45604898 -7.00361725 28.49819138 -11.25 26.375 C-14.7168509 23.3809015 -17.47238201 20.69192851 -18.3828125 16.046875 C-18.6746341 10.94972447 -17.39090366 7.9263095 -14 4 C-9.69592566 0.28284489 -5.59023532 -1.39755883 0 0 Z " fill="#74B600" transform="translate(260,66)"/>
<path d="M0 0 C-0.7425 0.99 -0.7425 0.99 -1.5 2 C-3.34878382 5.69756764 -3.88167736 8.98732666 -3 13 C-1.77557905 15.41510056 -0.40976087 17.68296728 1 20 C-0.94326172 20.12955078 -0.94326172 20.12955078 -2.92578125 20.26171875 C-35.09857619 22.68703375 -65.45006073 34.22351766 -91 54 C-92.40958984 55.07507813 -92.40958984 55.07507813 -93.84765625 56.171875 C-127.19671743 82.46724986 -148.49655381 121.73679017 -154.34375 163.65234375 C-159.39127111 206.90227264 -147.96296704 251.6025838 -121 286 C-120.32582031 286.87785156 -119.65164062 287.75570313 -118.95703125 288.66015625 C-93.24895156 321.20499301 -54.27970477 343.72588874 -13 349 C-6.3435081 349.78034795 0.32350592 350.41854304 7 351 C5.7121582 352.4444987 4.42431641 353.8889974 3.13647461 355.33349609 C1.19248191 358.18412857 1.57145309 360.69406666 2 364 C3.10347547 367.05577822 4.70347033 368.76009709 7 371 C-39.48694837 369.49034546 -79.91887302 353.6086327 -115 323 C-115.77472656 322.34902344 -116.54945313 321.69804687 -117.34765625 321.02734375 C-122.05607249 317.04469495 -126.04392481 312.721242 -130 308 C-130.75023437 307.14921875 -131.50046875 306.2984375 -132.2734375 305.421875 C-164.66700768 268.02109681 -178.62391747 219.60906801 -175.80957031 170.68994141 C-172.79005331 129.49510233 -156.12600161 90.35239939 -127.94921875 60.1015625 C-126.20472294 58.22072333 -124.56532432 56.29381969 -122.9375 54.3125 C-119.62823271 50.44870684 -115.91104259 47.24180611 -112 44 C-111.2562915 43.36384766 -111.2562915 43.36384766 -110.49755859 42.71484375 C-85.10338155 21.02823166 -53.20330243 5.61539681 -20 1 C-19.28779297 0.89461914 -18.57558594 0.78923828 -17.84179688 0.68066406 C-3.89168552 -1.37584842 -3.89168552 -1.37584842 0 0 Z " fill="#1D2D19" transform="translate(246,71)"/>
<path d="M0 0 C8.49848818 1.23365151 13.40093701 9.24401455 18.45703125 15.60546875 C20.9907442 18.70404824 23.64600981 21.63743172 26.375 24.5625 C30.69902096 29.20920909 34.76770832 34.00246807 38.73046875 38.96484375 C40.8456186 41.5269105 43.08423075 43.90780262 45.375 46.3125 C47.92170868 49.15912048 48.87917311 50.57567826 50.0625 54.3125 C49.84846485 58.02244261 49.23760992 59.71107423 46.875 62.5625 C44.30975817 64.57804715 42.92853346 64.56353197 39.6328125 64.5 C34.67077844 63.2620705 32.7402273 60.98332251 29.5 57.1875 C28.94199707 56.56061279 28.38399414 55.93372559 27.80908203 55.2878418 C23.63379426 50.560207 19.60343163 45.70752622 15.6796875 40.76953125 C14.15678532 38.90710759 12.58793155 37.24438052 10.875 35.5625 C10.86913376 36.62881149 10.86326752 37.69512299 10.85722351 38.79374695 C10.80000685 48.8434644 10.72725068 58.89296524 10.63928509 68.94246197 C10.59456044 74.109005 10.55530885 79.2754688 10.52856445 84.44213867 C10.5025525 89.42841052 10.46216484 94.41437779 10.41181374 99.4004612 C10.39513079 101.30260237 10.38362541 103.20479625 10.37738609 105.10700035 C10.36776057 107.77177219 10.33971999 110.4357623 10.30737305 113.1003418 C10.30880814 113.88652893 10.31024323 114.67271606 10.3117218 115.48272705 C10.2339331 120.01480914 9.65802234 122.94457901 6.875 126.5625 C4.16062321 128.69522462 2.82673167 128.55995956 -0.6875 128.375 C-5.22867893 127.30163043 -5.22867893 127.30163043 -7.125 124.5625 C-8.38085321 120.79494038 -8.30183553 117.25422553 -8.33032227 113.32739258 C-8.34022186 112.48814743 -8.35012146 111.64890228 -8.36032104 110.78422546 C-8.39192396 108.00852282 -8.41668874 105.23280305 -8.44140625 102.45703125 C-8.46197682 100.53317315 -8.48297332 98.60931957 -8.50437927 96.68547058 C-8.55958932 91.62040864 -8.60900334 86.55530598 -8.65722656 81.49017334 C-8.70744935 76.32218805 -8.76313136 71.15426192 -8.81835938 65.98632812 C-8.92592791 55.84510262 -9.02737582 45.70382576 -9.125 35.5625 C-10.85876634 37.43699043 -12.59015997 39.31358483 -14.3203125 41.19140625 C-14.80411377 41.71400024 -15.28791504 42.23659424 -15.78637695 42.77502441 C-19.73717938 47.06858296 -23.42777397 51.51827784 -27.0546875 56.08984375 C-33.79942367 64.1453494 -33.79942367 64.1453494 -38.125 64.625 C-41.18117244 64.80987244 -42.19271394 64.52936339 -45.0625 63.125 C-47.24913249 60.40827478 -48.28970175 58.27595917 -48.50390625 54.7578125 C-47.69798603 50.08846032 -44.23985471 46.94011926 -41.125 43.5625 C-40.33996094 42.69496094 -39.55492187 41.82742187 -38.74609375 40.93359375 C-37.05875005 39.07725161 -35.36453705 37.22713384 -33.6640625 35.3828125 C-31.22478911 32.67334267 -28.91296615 29.9002248 -26.625 27.0625 C-22.74788412 22.26063033 -18.66947665 17.69010079 -14.4921875 13.1484375 C-11.7769572 10.18229483 -9.13035173 7.16243794 -6.5 4.12109375 C-3.40506197 0.61291115 -3.40506197 0.61291115 0 0 Z " fill="#75B800" transform="translate(255.125,200.4375)"/>
</svg>
