<?xml version="1.0" standalone="no"?>
<!DOCTYPE svg PUBLIC "-//W3C//DTD SVG 20010904//EN"
 "http://www.w3.org/TR/2001/REC-SVG-20010904/DTD/svg10.dtd">
<svg version="1.0" xmlns="http://www.w3.org/2000/svg"
 width="512.000000pt" height="512.000000pt" viewBox="0 0 512.000000 512.000000"
 preserveAspectRatio="xMidYMid meet">

<g transform="translate(0.000000,512.000000) scale(0.100000,-0.100000)"
fill="#000000" stroke="none">
<path d="M1000 5114 c-260 -40 -445 -122 -627 -281 -187 -163 -325 -425 -363
-688 -6 -44 -10 -632 -10 -1576 0 -1640 -2 -1590 56 -1751 127 -354 426 -655
761 -767 158 -53 117 -52 1794 -48 1701 3 1576 -1 1757 61 319 110 578 370
689 691 61 177 57 57 60 1740 3 1102 1 1563 -7 1620 -58 409 -405 819 -807
954 -155 52 -119 51 -1757 50 -836 -1 -1532 -3 -1546 -5z m1645 -683 c19 -11
72 -22 143 -30 266 -28 577 -143 804 -297 286 -195 494 -436 642 -744 177
-369 227 -783 142 -1184 -153 -723 -726 -1291 -1446 -1435 -125 -25 -331 -45
-375 -37 -76 15 -107 109 -53 163 25 25 35 27 150 34 685 44 1268 488 1482
1130 66 199 80 288 80 529 0 241 -13 328 -80 529 -186 560 -677 991 -1252
1101 -158 30 -219 34 -245 18 -110 -72 -248 32 -208 155 29 87 129 119 216 68z
m-51 -1327 c25 -10 440 -493 450 -523 18 -59 -42 -120 -104 -106 -21 5 -63 46
-159 156 l-130 150 -3 -450 -3 -450 -23 -23 c-15 -16 -34 -23 -62 -23 -28 0
-47 7 -62 23 l-23 23 -3 450 -3 450 -130 -150 c-96 -110 -138 -151 -159 -156
-62 -14 -122 47 -104 105 9 28 424 514 447 524 17 7 53 7 71 0z"/>
</g>
</svg>
